# xmcd
#
# Track frame offsets:
#	150
#	14757
#	28167
#	42731
#	56956
#	73222
#	88151
#	103697
#	118572
#	133225
#	148061
#	162392
#	176866
#	191752
#	208000
#	219551
#	233741
#	253949
#	269302
#	281486
#	292690
#	305511
#	322211
#	333615
#
# Disc length: 4685 seconds
#
# Revision: 0
# Processed by: cddbd v1.5.2PL0 Copyright (c) Steve Scherf et al.
# Submitted via: EasyCDDAExtractor 16.0.6.1
#
DISCID=94124b18
DTITLE=Συλλογικός δίσκος - Το δημοτικό τραγούδι είναι εδώ 3.4
DYEAR=1900
DGENRE=Παραδοσιακή
TTITLE0=Ζαχαρόπουλος Ζαχαρίας - Μαντήλι καλαματιανό
TTITLE1=Ζαχαρόπουλος Ζαχαρίας - Πάνω σε ψηλή ραχούλα
TTITLE2=Ζαχαρόπουλος Ζαχαρίας - Αράχοβα
TTITLE3=Ζαχαρόπουλος Ζαχαρίας - Παιδιά γιατί είστε ανάλαγα
TTITLE4=Ζαχαρόπουλος Ζαχαρίας - Νά 'χε καεί ο πλάτανος
TTITLE5=Ζαχαρόπουλος Ζαχαρίας - Μιά μελαχροινή
TTITLE6=Ζαχαρόπουλος Ζαχαρίας - Στην κεντημένη σου ποδιά
TTITLE7=Ζαχαρόπουλος Ζαχαρίας - Αναστασία
TTITLE8=Ζαχαρόπουλος Ζαχαρίας - Όλα τα πουλάκια
TTITLE9=Ζαχαρόπουλος Ζαχαρίας - Το πιπίνι
TTITLE10=Ζαχαρόπουλος Ζαχαρίας - Πώς το τρίβουν το πιπέρι
TTITLE11=Γκίζας Στάθης - Τρία παιδιά Βολιώτικα
TTITLE12=Άνευ ερμηνευτού - Ο Ήλιος [ορχηστρικό, Βασίλης Σαλέας]
TTITLE13=Άνευ ερμηνευτού - Σβαρνιάρα [ορχηστρικό, Βασίλης Σαλέας]
TTITLE14=Περπινιάδης Βαγγέλης - Η Θήβα έχει όμορφες
TTITLE15=Περπινιάδης Βαγγέλης - Πουλιά μου διαβατάρικα
TTITLE16=Περπινιάδης Βαγγέλης - Παπα Λάμπραινα
TTITLE17=Περπινιάδης Βαγγέλης - Το πονεμένο στήθος μου
TTITLE18=Παπαγεωργίου Βασίλης - Χορεύουν τα κλεφτόπουλα
TTITLE19=Παπαγεωργίου Βασίλης - Κωνσταντινιά
TTITLE20=Παπαγεωργίου Βασίλης - Αργυρούλα
TTITLE21=Παπαγεωργίου Βασίλης - Τ' Ανδρούτσου η μάννα
TTITLE22=Παπαγεωργίου Βασίλης - Πέρασα από την Καρυά
TTITLE23=Παπαγεωργίου Βασίλης - Στ' Αναπλιού το Παλαμήδι
EXTD=
EXTT0=
EXTT1=
EXTT2=
EXTT3=
EXTT4=
EXTT5=
EXTT6=
EXTT7=
EXTT8=
EXTT9=
EXTT10=
EXTT11=
EXTT12=
EXTT13=
EXTT14=
EXTT15=
EXTT16=
EXTT17=
EXTT18=
EXTT19=
EXTT20=
EXTT21=
EXTT22=
EXTT23=
PLAYORDER=
